<?xml version="1.0" standalone="no"?>
<!DOCTYPE svg PUBLIC "-//W3C//DTD SVG 20010904//EN"
 "http://www.w3.org/TR/2001/REC-SVG-20010904/DTD/svg10.dtd">
<svg version="1.0" xmlns="http://www.w3.org/2000/svg"
 width="2000.000000pt" height="1530.000000pt" viewBox="0 0 2000.000000 1530.000000"
 preserveAspectRatio="xMidYMid meet">

<g transform="translate(0.000000,1530.000000) scale(0.100000,-0.100000)"
fill="#000000" stroke="none">
<path d="M5100 9730 l0 -470 470 0 470 0 0 -2080 0 -2080 470 0 470 0 0 2080
0 2080 470 0 470 0 0 -2080 0 -2080 1475 0 1475 0 0 2080 0 2080 540 0 540 0
0 -2080 0 -2080 465 0 465 0 0 2080 0 2080 540 0 540 0 0 -2080 0 -2080 470 0
470 0 0 2550 0 2550 -2480 0 -2480 0 0 -2080 0 -2080 -540 0 -540 0 0 2080 0
2080 -1880 0 -1880 0 0 -470z"/>
</g>
</svg>
